<svg xmlns="http://www.w3.org/2000/svg" viewBox="0 0 92.99 93"><defs><style>.cls-1{fill:#3ebdac;}</style></defs><title>Asset 3icon</title><g id="Layer_2" data-name="Layer 2"><g id="Layer_1-2" data-name="Layer 1"><path class="cls-1" d="M46.5,0A46.5,46.5,0,1,0,93,46.5,46.55,46.55,0,0,0,46.5,0Zm0,86.18A39.68,39.68,0,1,1,86.18,46.5,39.72,39.72,0,0,1,46.5,86.18Z"/><path class="cls-1" d="M74.21,31.21a3.4,3.4,0,0,0-4.82-.09L35.87,63.47,20.69,48.82A3.41,3.41,0,1,0,16,53.73L33.5,70.66a3.43,3.43,0,0,0,4.74,0L74.12,36A3.41,3.41,0,0,0,74.21,31.21Z"/></g></g></svg>