<svg xmlns="http://www.w3.org/2000/svg" viewBox="0 0 92.99 93"><defs><style>.cls-1{fill:#6d6e6e;}</style></defs><title>Asset 1icon</title><g id="Layer_2" data-name="Layer 2"><g id="Layer_2-2" data-name="Layer 2"><path class="cls-1" d="M46.5,0A46.5,46.5,0,1,0,93,46.5,46.55,46.55,0,0,0,46.5,0Zm0,86.18A39.68,39.68,0,1,1,86.18,46.5,39.72,39.72,0,0,1,46.5,86.18Z"/><path class="cls-1" d="M70,31.47,23.1,30.93A3.41,3.41,0,1,0,23,37.74l46.87.55h0a3.41,3.41,0,0,0,0-6.82Z"/><path class="cls-1" d="M70,55,23.1,54.43A3.41,3.41,0,1,0,23,61.25l46.87.54h0A3.41,3.41,0,0,0,70,55Z"/></g></g></svg>