<svg xmlns="http://www.w3.org/2000/svg" viewBox="0 0 92.99 93"><defs><style>.cls-1{fill:#ec008c;}</style></defs><title>Asset 2icon</title><g id="Layer_2" data-name="Layer 2"><g id="Layer_3" data-name="Layer 3"><path class="cls-1" d="M46.5,0A46.5,46.5,0,1,0,93,46.5,46.55,46.55,0,0,0,46.5,0Zm0,86.18A39.68,39.68,0,1,1,86.18,46.5,39.72,39.72,0,0,1,46.5,86.18Z"/><path class="cls-1" d="M70,24.55a3.41,3.41,0,0,0-4.82-.05L46.55,42.67,28.39,24.09a3.41,3.41,0,0,0-4.88,4.77L41.68,47.43,23.1,65.6a3.41,3.41,0,0,0,4.77,4.87L46.44,52.31,64.61,70.88a3.4,3.4,0,1,0,4.87-4.76L51.32,47.54,69.89,29.37A3.41,3.41,0,0,0,70,24.55Z"/></g></g></svg>