<svg id="Layer_1" data-name="Layer 1" xmlns="http://www.w3.org/2000/svg" viewBox="0 0 297 297"><defs><style>.cls-1{fill:#3ebca9;}</style></defs><title>drone</title><path class="cls-1" d="M81,122.73a40.72,40.72,0,0,0,16.72-3.6L87.58,109a28,28,0,1,1,20.88-21.76l10.32,10.32A40.93,40.93,0,1,0,81,122.73Z"/><path class="cls-1" d="M187.6,87.19A28.16,28.16,0,1,1,208.44,109l-10.13,10.13a40.89,40.89,0,1,0-21-21.61Z"/><path class="cls-1" d="M215.07,174.69a40.8,40.8,0,0,0-15.93,3.21l10.28,10.28a28.17,28.17,0,1,1-21.59,21.05l-10.17-10.17a40.92,40.92,0,1,0,37.41-24.38Z"/><path class="cls-1" d="M108.23,209.19a28,28,0,1,1-21.63-21l10.29-10.29A41,41,0,1,0,118.4,199Z"/><path class="cls-1" d="M198.44,207.66l5.14,5.14a11.84,11.84,0,1,0,11.49-9A11.93,11.93,0,0,0,213,204l-4.54-4.54-20.21-21.8a43.45,43.45,0,0,1,.05-59.14l20.78-22.33h0L212,93.24a11.84,11.84,0,1,0-8.78-11.43,12.05,12.05,0,0,0,.15,1.79L199,88l-21.36,19.89a43.45,43.45,0,0,1-59.13.08L97.28,88.23l-4.59-4.59a12,12,0,0,0,.16-1.84A11.85,11.85,0,1,0,81,93.65a11.71,11.71,0,0,0,3-.4l3,3h0l20.78,22.2a43.46,43.46,0,0,1,.11,59.27L89.65,197.32,83,204a12.11,12.11,0,0,0-2-.18,11.9,11.9,0,1,0,11.49,9l3.62-3.62,0,0,22.36-20.84a43.44,43.44,0,0,1,59.26,0Z"/></svg>