<?xml version="1.0" encoding="utf-8"?>
<!-- Generator: Adobe Illustrator 22.1.0, SVG Export Plug-In . SVG Version: 6.00 Build 0)  -->
<svg version="1.1" id="Layer_1" xmlns="http://www.w3.org/2000/svg" xmlns:xlink="http://www.w3.org/1999/xlink" x="0px" y="0px"
	 viewBox="0 0 654 122" style="enable-background:new 0 0 654 122;" xml:space="preserve">
<style type="text/css">
	.st0{fill:#24A089;}
	.st1{fill:#717375;}
</style>
<g>
	<path class="st0" d="M11,19.2c1.1-3.3,3-4.7,3.2-4.8c-0.1,0.2-0.6,2.7-0.5,4.5c0.1,1.5,0.3,3.2,1.7,5.5c1.3,2.2,4.6,5.1,4.6,5.1
		s-0.3-1.7,0.5-4.3c0.9-2.7,2.4-3.2,2.4-3.2s-0.2,2.1,0.2,3.3c0.4,1.2,1.9,2.1,1.9,2.1s3.4-1.4,5.4-3.7c2.1-2.3,2.6-6.8,3.1-7.4
		c0.4-0.6,1.8-0.5,1.8-0.5s-1.5-2.6-1.6-3.5c-0.1-0.9-0.2-1.8-0.2-1.8s-0.1-0.3-0.3-0.7C33,9.3,32.5,8,32.7,7.9
		c0.2-0.1,1,0.1,1.7,0.3c0.7,0.2,2.3,2,2.3,2l-0.6-2.1c0,0-0.1-0.5-0.4-0.7c-0.4-0.4-1.3-1.9-1.2-2.3c0.1-0.4,1.6,0.1,2.9,0.5
		c1.3,0.4,2.7,1.2,3.7,2.3s2.1,3.2,2.1,3.2s1.6-2.7,5.3-2.7c3.7,0,8.3,2.1,13,7.8c4.7,5.7,7.1,17.4,6.2,23.7
		C66.8,46.2,62,52,58.9,58c-3.1,6-2.1,11.3-2.1,11.3s-3.9-0.2-7.5,3.7c-3.8,4.1-3.4,7.1-3.4,7.1s3.5,1.2,3.5,3.4
		c0,2.1-2.6,3.5-2.6,3.5s1,1.4,2.9,2.6c1.9,1.2,7.7,3.9,9.8,6.9c1.7,2.5,2,4.1,1.6,6.1c-0.4,2-3.7,4.2-3.7,4.2l3.5,2v3.1H14.3v-3.1
		l3.5-2c0,0-3.4-2.2-3.7-4.2c-0.4-2-0.1-3.6,1.6-6.1c2.1-3,8-5.6,9.8-6.9c1.9-1.2,2.9-2.6,2.9-2.6s-2.6-1.4-2.6-3.5
		c0-2.1,3.5-3.4,3.5-3.4s0.4-3-3.4-7.1c-3.6-3.9-7.5-3.7-7.5-3.7s-0.7-5,2.4-9.7c2.4-3.5,14.9-11.6,15.6-13.4c0.7-1.7,0-2.3,0-2.3
		s-0.2,1-1,1.6c-0.9,0.7-4.6,1.7-6.9,2.2s-5.9,0.6-7.2,0.2c-1.4-0.4-2.3-2.7-2.7-2.8c-0.4-0.1-0.8,0-2.2,0.7
		c-1.4,0.7-2.1,0.1-2.6-0.2c-0.4-0.3-0.4-2.6-0.8-4.5c-0.4-1.9-1.7-3.2-1.9-3.7s1.9-3.1,2.1-3.4c0.2-0.4-1.6-3.9-2.2-6.2
		C10.3,25.3,9.9,22.6,11,19.2z"/>
	<path class="st0" d="M14.3,14.3C14.3,14.3,14.2,14.3,14.3,14.3C14.2,14.3,14.2,14.3,14.3,14.3z"/>
</g>
<g>
	<path class="st0" d="M88.6,99.1c0-8.3,6.3-14.4,14.8-14.4c4.1,0,7.8,1.4,10.4,4.1l-1.9,1.9c-2.3-2.3-5.1-3.4-8.4-3.4
		c-6.8,0-12,5-12,11.7c0,6.7,5.1,11.7,12,11.7c3.2,0,6.1-1,8.4-3.4l1.9,1.9c-2.5,2.7-6.2,4.2-10.4,4.2
		C94.9,113.5,88.6,107.4,88.6,99.1z"/>
	<path class="st0" d="M160,113.2l-6.5-9.1c-0.7,0.1-1.5,0.1-2.3,0.1h-7.6v9h-3V84.9h10.6c7.2,0,11.6,3.6,11.6,9.7
		c0,4.4-2.3,7.6-6.5,8.9l6.9,9.7H160z M159.8,94.6c0-4.5-3-7.1-8.7-7.1h-7.5v14.2h7.5C156.8,101.7,159.8,99.1,159.8,94.6z"/>
	<path class="st0" d="M210.3,110.6v2.6h-20V84.9h19.4v2.6h-16.4v10.1h14.6v2.5h-14.6v10.5H210.3z"/>
	<path class="st0" d="M255.5,105.7h-15.8l-3.4,7.6h-3.1l12.9-28.3h3l12.9,28.3h-3.2L255.5,105.7z M254.4,103.2L247.6,88l-6.8,15.2
		H254.4z"/>
	<path class="st0" d="M291.3,87.5h-9.9v-2.6h22.9v2.6h-9.9v25.7h-3V87.5z"/>
	<path class="st0" d="M329.4,84.9h3v28.3h-3V84.9z"/>
	<path class="st0" d="M385.3,84.9l-12.5,28.3h-3l-12.5-28.3h3.2l10.8,24.6l10.9-24.6H385.3z"/>
	<path class="st0" d="M429.8,110.6v2.6h-20V84.9h19.4v2.6h-16.4v10.1h14.6v2.5h-14.6v10.5H429.8z"/>
	<path class="st0" d="M491.2,87.5v11.1h14.6v2.6h-14.6v12h-3V84.9h19.4v2.6H491.2z"/>
	<path class="st0" d="M534.3,84.9h3v28.3h-3V84.9z"/>
	<path class="st0" d="M586.2,113.2l-6.5-9.1c-0.7,0.1-1.5,0.1-2.3,0.1h-7.6v9h-3V84.9h10.6c7.2,0,11.6,3.6,11.6,9.7
		c0,4.4-2.3,7.6-6.5,8.9l6.9,9.7H586.2z M586.1,94.6c0-4.5-3-7.1-8.7-7.1h-7.5v14.2h7.5C583.1,101.7,586.1,99.1,586.1,94.6z"/>
	<path class="st0" d="M646,84.9v28.3h-2.9V90.6l-11.1,19h-1.4l-11.1-18.9v22.5h-2.9V84.9h2.5l12.3,21l12.2-21H646z"/>
</g>
<g>
	<path class="st1" d="M88.1,61.3l4.2-9.4c4.5,3.3,11.3,5.6,17.7,5.6c7.4,0,10.4-2.5,10.4-5.8c0-10.1-31.2-3.1-31.2-23.1
		c0-9.1,7.4-16.7,22.6-16.7c6.8,0,13.7,1.6,18.7,4.8l-3.8,9.4c-5-2.8-10.1-4.2-14.9-4.2c-7.4,0-10.2,2.8-10.2,6.1
		c0,9.9,31.2,3.1,31.2,22.8c0,9-7.4,16.7-22.8,16.7C101.5,67.5,92.9,64.9,88.1,61.3z"/>
	<path class="st1" d="M137.6,45.9c0-12.4,9.6-21.3,23-21.3c8.7,0,15.5,3.8,18.5,10.5l-9.3,5c-2.2-3.9-5.5-5.7-9.3-5.7
		c-6.1,0-10.8,4.2-10.8,11.4c0,7.2,4.8,11.4,10.8,11.4c3.8,0,7.1-1.7,9.3-5.7l9.3,5.1c-3,6.6-9.8,10.4-18.5,10.4
		C147.2,67.2,137.6,58.3,137.6,45.9z"/>
	<path class="st1" d="M222.6,43v23.6h-11.2v-5.1c-2.2,3.8-6.5,5.8-12.6,5.8c-9.7,0-15.4-5.4-15.4-12.5c0-7.3,5.1-12.4,17.7-12.4h9.5
		c0-5.1-3.1-8.1-9.5-8.1c-4.4,0-8.9,1.5-11.9,3.8l-4.3-8.4c4.5-3.2,11.2-5,17.8-5C215.3,24.6,222.6,30.5,222.6,43z M210.6,53.5v-4.2
		h-8.2c-5.6,0-7.4,2.1-7.4,4.8c0,3,2.5,5,6.8,5C205.8,59.1,209.3,57.3,210.6,53.5z"/>
	<path class="st1" d="M271,42.9v23.6h-12V44.8c0-6.7-3.1-9.7-8.4-9.7c-5.8,0-9.9,3.5-9.9,11.1v20.4h-12V25.3h11.4v4.8
		c3.2-3.5,8.1-5.4,13.7-5.4C263.7,24.6,271,30.3,271,42.9z"/>
	<path class="st1" d="M319.5,42.9v23.6h-12V44.8c0-6.7-3.1-9.7-8.4-9.7c-5.8,0-9.9,3.5-9.9,11.1v20.4h-12V25.3h11.4v4.8
		c3.2-3.5,8.1-5.4,13.7-5.4C312.1,24.6,319.5,30.3,319.5,42.9z"/>
	<path class="st1" d="M368.1,49.3h-31.2c1.2,5.1,5.5,8.3,11.8,8.3c4.4,0,7.5-1.3,10.4-4l6.4,6.9c-3.8,4.4-9.6,6.7-17,6.7
		c-14.3,0-23.6-9-23.6-21.3c0-12.4,9.4-21.3,22-21.3c12.1,0,21.5,8.1,21.5,21.4C368.4,47,368.2,48.3,368.1,49.3z M336.7,42.3h20.3
		c-0.8-5.2-4.8-8.6-10.1-8.6C341.5,33.7,337.6,37,336.7,42.3z"/>
	<path class="st1" d="M418,9.6v56.9h-11.4v-4.8c-3,3.6-7.4,5.4-12.9,5.4c-11.7,0-20.6-8.3-20.6-21.3c0-13,9-21.3,20.6-21.3
		c5.1,0,9.4,1.6,12.4,5v-20H418z M406.3,45.9c0-7.1-4.6-11.4-10.5-11.4c-6,0-10.6,4.3-10.6,11.4c0,7.1,4.6,11.4,10.6,11.4
		C401.7,57.3,406.3,53,406.3,45.9z"/>
	<path class="st1" d="M474.2,66.6l-0.1-32.2l-15.8,26.6h-5.6L437,35v31.5h-11.7V12.8h10.3l20.1,33.4l19.8-33.4h10.2l0.2,53.7H474.2z
		"/>
	<path class="st1" d="M534.1,49.3h-31.2c1.2,5.1,5.5,8.3,11.8,8.3c4.4,0,7.5-1.3,10.4-4l6.4,6.9c-3.8,4.4-9.6,6.7-17,6.7
		c-14.3,0-23.6-9-23.6-21.3c0-12.4,9.4-21.3,22-21.3c12.1,0,21.5,8.1,21.5,21.4C534.3,47,534.1,48.3,534.1,49.3z M502.7,42.3H523
		c-0.8-5.2-4.8-8.6-10.1-8.6C507.4,33.7,503.5,37,502.7,42.3z"/>
	<path class="st1" d="M583.8,9.6v56.9h-11.4v-4.8c-3,3.6-7.4,5.4-12.9,5.4c-11.7,0-20.6-8.3-20.6-21.3c0-13,9-21.3,20.6-21.3
		c5.1,0,9.4,1.6,12.4,5v-20H583.8z M572.1,45.9c0-7.1-4.6-11.4-10.5-11.4c-6,0-10.6,4.3-10.6,11.4c0,7.1,4.6,11.4,10.6,11.4
		C567.5,57.3,572.1,53,572.1,45.9z"/>
	<path class="st1" d="M588.8,12.8c0-3.8,3-6.7,7.4-6.7s7.4,2.8,7.4,6.4c0,4-3,6.9-7.4,6.9S588.8,16.6,588.8,12.8z M590.3,25.3h12
		v41.3h-12V25.3z"/>
	<path class="st1" d="M646.2,43v23.6H635v-5.1c-2.2,3.8-6.5,5.8-12.6,5.8c-9.7,0-15.4-5.4-15.4-12.5c0-7.3,5.1-12.4,17.7-12.4h9.5
		c0-5.1-3.1-8.1-9.5-8.1c-4.4,0-8.9,1.5-11.9,3.8l-4.3-8.4c4.5-3.2,11.2-5,17.8-5C638.9,24.6,646.2,30.5,646.2,43z M634.2,53.5v-4.2
		H626c-5.6,0-7.4,2.1-7.4,4.8c0,3,2.5,5,6.8,5C629.4,59.1,632.8,57.3,634.2,53.5z"/>
</g>
</svg>
