<svg id="Layer_1" data-name="Layer 1" xmlns="http://www.w3.org/2000/svg" viewBox="0 0 297 297"><defs><style>.cls-1{fill:#3ebca9;}.cls-2,.cls-3{fill:#fff;}.cls-3{fill-rule:evenodd;}</style></defs><title>social_media</title><g id="Facebook"><circle id="back" class="cls-1" cx="148.16" cy="100.69" r="52.81"/><path id="Facebook-2" data-name="Facebook" class="cls-2" d="M173.86,71.81H122.47A3.19,3.19,0,0,0,119.28,75v51.39a3.19,3.19,0,0,0,3.19,3.19h27.67V107.2h-7.53V98.48h7.53V92.05c0-7.46,4.56-11.52,11.21-11.52a61.71,61.71,0,0,1,6.73.34v7.8h-4.62c-3.62,0-4.32,1.72-4.32,4.24v5.57h8.63l-1.12,8.72h-7.51v22.37h14.72a3.19,3.19,0,0,0,3.19-3.19V75A3.19,3.19,0,0,0,173.86,71.81Z"/></g><g id="Instagram"><circle id="back-2" data-name="back" class="cls-1" cx="92.77" cy="198.19" r="52.81"/><path id="Instagram-2" data-name="Instagram" class="cls-3" d="M115.52,193.63h-5.15a18.2,18.2,0,1,1-35.2,0H70v25a2.28,2.28,0,0,0,2.28,2.27h40.95a2.28,2.28,0,0,0,2.28-2.27Zm0-15.92a2.28,2.28,0,0,0-2.28-2.27h-6.82a2.27,2.27,0,0,0-2.27,2.27v6.83a2.27,2.27,0,0,0,2.27,2.27h6.82a2.28,2.28,0,0,0,2.28-2.27Zm-22.75,9.1a11.38,11.38,0,1,0,11.38,11.37,11.37,11.37,0,0,0-11.38-11.37m22.75,41H70a6.83,6.83,0,0,1-6.82-6.83v-45.5A6.82,6.82,0,0,1,70,168.61h45.5a6.82,6.82,0,0,1,6.82,6.82v45.5a6.83,6.83,0,0,1-6.82,6.83"/></g><g id="Twitter"><circle id="back-3" data-name="back" class="cls-1" cx="203.56" cy="198.19" r="52.81"/><path id="Twitter-2" data-name="Twitter" class="cls-2" d="M233.13,179.84a24.24,24.24,0,0,1-7,1.91A12.17,12.17,0,0,0,231.5,175a24.3,24.3,0,0,1-7.71,2.94,12.15,12.15,0,0,0-20.68,11.07,34.45,34.45,0,0,1-25-12.68,12.15,12.15,0,0,0,3.76,16.2,12.08,12.08,0,0,1-5.5-1.52c0,.05,0,.1,0,.15a12.14,12.14,0,0,0,9.73,11.9,12.17,12.17,0,0,1-5.48.21A12.15,12.15,0,0,0,192,211.74a24.35,24.35,0,0,1-15.07,5.19,24.68,24.68,0,0,1-2.89-.17,34.35,34.35,0,0,0,18.6,5.45c22.32,0,34.53-18.49,34.53-34.53q0-.79,0-1.57A24.65,24.65,0,0,0,233.13,179.84Z"/></g></svg>