<?xml version="1.0" encoding="utf-8"?>
<!-- Generator: Adobe Illustrator 22.1.0, SVG Export Plug-In . SVG Version: 6.00 Build 0)  -->
<svg version="1.1" id="Layer_1" xmlns="http://www.w3.org/2000/svg" xmlns:xlink="http://www.w3.org/1999/xlink" x="0px" y="0px"
	 viewBox="0 0 300 300" style="enable-background:new 0 0 300 300;" xml:space="preserve">
<style type="text/css">
	.st0{fill:#605F60;}
</style>
<g>
	<path class="st0" d="M120.6,126.4c4.2,7.8,6.3,16.5,6.3,26.1c0,18.4-6,33.4-18,45s-26.8,17.4-44.4,17.4c-16,0-29.1-5-39.3-15
		s-15.3-23-15.3-39c0-8.4,1.5-16.4,4.5-24s8.3-17.4,15.9-29.4l60-96.6h58.8l-45.6,96.6C110.7,112.3,116.4,118.6,120.6,126.4z
		 M262.2,126.4c4.2,7.8,6.3,16.5,6.3,26.1c0,18.4-6,33.4-18,45s-26.8,17.4-44.4,17.4c-16,0-29.1-5-39.3-15s-15.3-23-15.3-39
		c0-8.4,1.5-16.4,4.5-24s8.3-17.4,15.9-29.4l60-96.6h58.8l-45.6,96.6C252.3,112.3,258,118.6,262.2,126.4z"/>
</g>
</svg>
