<svg id="Layer_1" data-name="Layer 1" xmlns="http://www.w3.org/2000/svg" viewBox="0 0 297 297"><defs><style>.cls-1,.cls-3{fill:#3ebca9;}.cls-1,.cls-2{stroke:#3ebca9;stroke-miterlimit:10;stroke-width:9.29px;}.cls-2{fill:#fff;}</style></defs><title>video</title><rect class="cls-1" x="53.93" y="133.61" width="195.07" height="118.1" rx="4.41" ry="4.41"/><rect class="cls-2" x="44.47" y="73.23" width="195.07" height="34.5" rx="2.37" ry="2.37" transform="translate(-20.14 45.07) rotate(-16.86)"/><path class="cls-3" d="M81.94,126.7l32.6-9.88a3.14,3.14,0,0,0,1.86-1.52l18.83-35.19a3.14,3.14,0,0,0-3.68-4.49L98.94,85.5A3.14,3.14,0,0,0,97.08,87L78.26,122.22A3.14,3.14,0,0,0,81.94,126.7Z"/><path class="cls-3" d="M216.43,49.9l-32.6,9.88A3.14,3.14,0,0,0,182,61.3L163.14,96.5a3.14,3.14,0,0,0,3.68,4.49l32.6-9.88a3.14,3.14,0,0,0,1.86-1.52l18.83-35.19A3.14,3.14,0,0,0,216.43,49.9Z"/><path class="cls-3" d="M46.66,101.34h0a3.14,3.14,0,0,0-2.09,3.92h0a3.14,3.14,0,0,0,5.77.57h0A3.14,3.14,0,0,0,46.66,101.34Z"/><rect class="cls-2" x="88.22" y="155.67" width="126.49" height="73.03"/></svg>